<svg
    aria-hidden="true"
    width="16"
    height="16"
    viewBox="0 0 16 16"
    xmlns="http://www.w3.org/2000/svg"
    fill="rgb(108, 118, 136)"
>
    <path
        d="M0 2.25A2.25 2.25 0 0 1 2.25 0h7.5A2.25 2.25 0 0 1 12 2.25v6a.75.75 0 0 1-1.5 0v-6a.75.75 0 0 0-.75-.75h-7.5a.75.75 0 0 0-.75.75v10.851a.192.192 0 0 0 .277.172l.888-.444a.75.75 0 1 1 .67 1.342l-.887.443A1.69 1.69 0 0 1 0 13.101V2.25Z"
    />
    <path
        d="M5 10.7a.7.7 0 0 1 .7-.7h4.6a.7.7 0 1 1 0 1.4H7.36l.136.237c.098.17.193.336.284.491.283.483.554.907.855 1.263.572.675 1.249 1.109 2.365 1.109 1.18 0 2.038-.423 2.604-1.039.576-.626.896-1.5.896-2.461 0-.99-.42-1.567-.807-1.998a.75.75 0 1 1 1.115-1.004C15.319 8.568 16 9.49 16 11c0 1.288-.43 2.54-1.292 3.476C13.838 15.423 12.57 16 11 16c-1.634 0-2.706-.691-3.51-1.64-.386-.457-.71-.971-1.004-1.472L6.4 12.74v2.56a.7.7 0 1 1-1.4 0v-4.6ZM2.95 4.25a.75.75 0 0 1 .75-.75h2a.75.75 0 0 1 0 1.5h-2a.75.75 0 0 1-.75-.75ZM3.7 6.5a.75.75 0 0 0 0 1.5h4.6a.75.75 0 0 0 0-1.5H3.7Z"
    />
</svg>
